<?xml version="1.0" standalone="no"?>
<!DOCTYPE svg PUBLIC "-//W3C//DTD SVG 20010904//EN"
 "http://www.w3.org/TR/2001/REC-SVG-20010904/DTD/svg10.dtd">
<svg version="1.0" xmlns="http://www.w3.org/2000/svg"
 width="1859.000000pt" height="1860.000000pt" viewBox="0 0 1859.000000 1860.000000"
 preserveAspectRatio="xMidYMid meet">

<g transform="translate(0.000000,1860.000000) scale(0.100000,-0.100000)"
fill="#000000" stroke="none">
<path d="M3372 11663 c-68 -130 -235 -459 -432 -848 -133 -264 -322 -637 -420
-830 -98 -192 -257 -507 -355 -700 -98 -192 -242 -476 -320 -630 -78 -154
-249 -490 -379 -747 l-236 -467 2 -708 3 -708 1530 -5 1530 -5 3 -537 2 -538
768 -2 c422 -2 773 -1 779 1 10 2 13 123 15 540 l3 536 261 3 c300 3 263 16
338 -118 64 -112 161 -261 253 -388 74 -101 75 -105 69 -149 -9 -66 -32 -97
-160 -216 -110 -103 -149 -158 -131 -187 4 -6 1111 -10 3276 -10 2805 0 3271
2 3275 14 11 29 -31 89 -109 159 -119 106 -148 137 -168 182 -32 69 -26 98 39
184 84 112 209 302 277 424 l60 107 1017 0 1018 0 2 -537 3 -538 773 -5 c482
-3 777 -1 783 4 5 6 9 220 9 543 l0 533 335 0 335 0 -2 713 -3 712 -215 1
c-118 1 -268 2 -332 3 l-118 1 -2 718 -3 717 -780 0 -780 0 -5 -720 -5 -720
-688 0 c-379 0 -691 3 -694 7 -2 5 34 81 80 170 47 90 200 393 342 673 142
281 336 665 433 855 96 190 250 494 342 675 92 182 272 537 400 790 128 253
300 591 381 752 82 160 149 297 149 302 0 8 -247 10 -827 9 l-828 -3 -41 -80
c-22 -44 -163 -323 -313 -620 -151 -297 -306 -603 -346 -680 -40 -77 -145
-285 -234 -462 -89 -178 -163 -323 -165 -323 -2 0 -34 55 -71 123 -533 963
-1506 1672 -2583 1881 -292 57 -636 80 -965 64 -912 -43 -1806 -444 -2467
-1107 -539 -540 -896 -1211 -1044 -1961 -52 -267 -61 -371 -61 -727 l0 -331
-50 -4 c-27 -3 -53 -3 -57 -1 -5 2 -8 328 -8 724 l0 719 -780 0 -780 0 0 -714
c0 -393 -4 -717 -8 -720 -13 -8 -1379 -12 -1387 -5 -3 4 16 49 43 100 27 52
165 324 307 604 142 281 328 650 415 820 87 171 245 483 352 695 108 212 284
561 393 775 109 215 257 507 330 650 203 398 279 548 287 568 7 16 -36 17
-822 17 -780 0 -830 -1 -838 -17z m6818 -1312 c549 -95 1032 -342 1415 -726
215 -215 365 -424 501 -700 137 -280 224 -582 255 -889 24 -240 1 -612 -52
-835 -172 -726 -631 -1335 -1277 -1695 -692 -386 -1537 -431 -2277 -121 -465
195 -885 547 -1168 980 -172 264 -305 588 -366 894 -40 198 -46 271 -45 541 1
240 3 279 27 412 122 683 473 1254 1021 1662 341 253 737 418 1156 480 163 24
160 24 430 21 206 -2 279 -7 380 -24z"/>
<path d="M8960 9911 c-157 -51 -381 -160 -505 -245 -187 -129 -479 -442 -516
-553 -18 -56 -7 -136 25 -177 46 -61 19 -52 686 -237 325 -90 376 -97 446 -61
52 27 107 90 122 139 6 21 13 106 17 188 3 83 8 168 10 190 6 60 20 447 20
556 0 88 -2 99 -28 138 -51 77 -157 101 -277 62z"/>
<path d="M10370 9908 c-35 -19 -51 -36 -73 -80 l-29 -56 22 -474 c11 -260 26
-492 32 -515 13 -52 67 -117 122 -145 74 -38 113 -32 591 101 242 67 455 130
474 139 19 9 48 34 65 55 40 50 48 133 19 198 -39 88 -284 363 -418 470 -184
147 -544 317 -690 326 -60 4 -77 1 -115 -19z"/>
<path d="M9705 8524 c-154 -86 -66 -319 103 -272 49 14 99 65 107 112 10 50
-17 119 -57 147 -40 29 -113 35 -153 13z m105 -59 c74 -38 44 -155 -39 -155
-88 0 -114 116 -36 158 27 15 41 15 75 -3z"/>
<path d="M9675 8126 c-191 -60 -298 -243 -251 -427 42 -165 179 -272 346 -271
84 0 132 15 200 60 104 70 170 210 156 332 -12 102 -80 210 -167 266 -79 50
-200 67 -284 40z"/>
<path d="M9123 8100 c-137 -70 -85 -277 68 -274 83 1 144 62 144 144 0 110
-113 180 -212 130z m101 -54 c40 -17 57 -56 44 -104 -12 -44 -61 -67 -108 -50
-68 23 -72 125 -6 154 38 16 31 16 70 0z"/>
<path d="M10300 8109 c-69 -28 -110 -107 -91 -176 30 -108 168 -145 243 -66
51 54 59 104 27 169 -32 66 -113 99 -179 73z m84 -63 c65 -27 66 -125 1 -152
-57 -24 -115 14 -115 75 1 48 27 79 78 90 1 1 18 -5 36 -13z"/>
<path d="M7615 7904 c-92 -48 -114 -100 -115 -266 0 -410 130 -796 382 -1125
44 -58 121 -103 175 -103 38 0 98 23 127 48 25 22 524 775 547 827 40 87 9
214 -67 272 -20 14 -227 98 -484 194 -471 177 -503 186 -565 153z"/>
<path d="M11356 7750 c-420 -158 -452 -172 -493 -212 -80 -78 -95 -187 -38
-283 54 -93 513 -781 531 -797 29 -25 89 -48 126 -48 50 0 130 42 165 86 117
151 252 402 307 573 58 177 97 453 91 626 -5 136 -84 226 -197 225 -31 -1
-174 -50 -492 -170z"/>
<path d="M9365 7425 c-135 -48 -131 -235 5 -276 113 -34 217 73 180 185 -13
40 -71 96 -100 96 -10 0 -24 2 -32 5 -7 2 -31 -2 -53 -10z m96 -68 c49 -38 47
-106 -4 -138 -42 -25 -60 -24 -96 7 -61 51 -29 144 48 144 20 0 43 -6 52 -13z"/>
<path d="M10090 7430 c-44 -11 -97 -67 -106 -115 -9 -48 19 -118 57 -146 45
-32 99 -35 151 -10 56 27 82 70 80 133 -2 96 -86 159 -182 138z m97 -82 c16
-15 23 -33 23 -60 0 -90 -114 -118 -155 -39 -43 84 63 163 132 99z"/>
<path d="M9708 6691 c-15 -5 -43 -19 -63 -31 -37 -23 -606 -727 -637 -790 -39
-75 -13 -182 57 -236 70 -53 352 -123 583 -145 199 -19 474 17 707 92 81 27
107 40 140 74 66 66 78 149 32 227 -12 20 -151 199 -309 397 -313 393 -330
409 -430 416 -29 3 -65 0 -80 -4z"/>
<path d="M4200 3566 c-182 -53 -290 -195 -290 -380 0 -89 20 -156 67 -224 169
-247 548 -216 676 56 29 62 32 75 32 167 -1 79 -5 112 -23 155 -53 134 -189
228 -338 236 -48 2 -97 -2 -124 -10z m212 -191 c134 -89 139 -282 9 -374 -16
-12 -53 -26 -82 -31 -185 -35 -320 163 -226 332 23 43 81 86 129 99 51 12 129
1 170 -26z"/>
<path d="M2030 3185 l0 -375 235 0 235 0 0 85 0 85 -150 0 -151 0 3 63 3 62
133 3 132 3 0 79 0 79 -132 3 -133 3 -3 58 -3 57 135 0 c74 0 141 3 150 6 13
5 16 22 16 85 l0 79 -235 0 -235 0 0 -375z"/>
<path d="M2609 3548 c0 -10 0 -676 1 -730 0 -5 38 -8 85 -8 l85 0 0 121 0 120
42 -3 43 -3 66 -115 67 -115 91 -3 c56 -2 91 1 91 7 0 6 -31 64 -70 129 -38
65 -70 123 -70 129 0 6 16 23 35 37 19 15 47 48 62 74 23 39 27 58 27 117 0
58 -5 79 -28 123 -31 55 -73 94 -131 118 -46 19 -395 21 -396 2z m352 -177
c40 -41 40 -91 -1 -132 -28 -28 -33 -30 -102 -27 l-73 3 -3 79 c-2 44 -1 85 2
93 4 9 26 13 76 13 66 0 74 -2 101 -29z"/>
<path d="M3280 3186 l0 -376 85 0 85 0 0 120 0 120 39 0 c46 0 48 -3 130 -147
l53 -93 89 0 c54 0 89 4 89 10 0 6 -31 65 -70 131 -38 67 -70 124 -70 127 0 3
18 21 40 40 132 112 112 321 -39 410 -45 26 -50 27 -238 30 l-193 4 0 -376z
m333 202 c35 -18 46 -40 47 -86 0 -32 -6 -49 -25 -67 -22 -22 -32 -25 -105
-25 l-80 0 0 95 0 95 71 0 c39 0 80 -5 92 -12z"/>
<path d="M4800 3185 l0 -375 85 0 85 0 0 121 0 120 42 -3 43 -3 66 -115 67
-115 91 -3 c61 -2 91 1 91 8 0 6 -31 64 -70 129 -38 65 -70 122 -70 126 0 5
22 29 49 55 86 83 103 194 45 300 -30 55 -77 96 -133 116 -24 9 -95 13 -213
14 l-178 0 0 -375z m351 186 c39 -40 41 -97 2 -135 -25 -25 -32 -27 -102 -24
l-76 3 -3 93 -3 92 76 0 c71 0 79 -2 106 -29z"/>
<path d="M6066 3348 c-3 -7 -4 -107 -3 -223 2 -179 4 -210 17 -210 12 0 16 22
20 117 5 110 7 119 31 144 40 39 106 44 145 11 29 -25 29 -26 32 -151 3 -101
6 -126 18 -126 22 0 20 220 -3 267 -18 39 -62 63 -113 63 -35 0 -90 -25 -90
-41 0 -6 -6 -9 -12 -6 -9 2 -13 28 -13 82 0 54 -4 79 -12 82 -7 3 -15 -1 -17
-9z"/>
<path d="M10070 3265 l0 -96 -40 32 c-108 87 -269 10 -270 -130 0 -89 78 -170
163 -171 35 0 95 25 124 52 l23 21 0 -31 c0 -22 5 -32 15 -32 13 0 15 32 15
225 0 193 -2 225 -15 225 -12 0 -15 -17 -15 -95z m-50 -90 c100 -96 28 -258
-107 -242 -121 13 -164 160 -71 243 32 30 46 34 101 30 36 -2 55 -10 77 -31z"/>
<path d="M12588 3263 l-3 -98 -20 22 c-74 79 -216 60 -265 -36 -42 -83 -11
-185 70 -228 24 -13 56 -23 72 -23 38 0 88 22 112 49 26 29 36 26 36 -10 0
-20 4 -29 13 -27 9 4 13 60 15 226 2 191 0 222 -12 222 -12 0 -16 -19 -18 -97z
m-69 -71 c49 -26 73 -75 68 -135 -10 -118 -150 -168 -234 -84 -115 114 23 295
166 219z"/>
<path d="M16007 3354 c-14 -15 -6 -34 14 -34 14 0 19 5 17 17 -3 18 -20 27
-31 17z"/>
<path d="M5845 3308 c-2 -7 -5 -26 -7 -43 -3 -26 -7 -30 -36 -33 -42 -4 -37
-26 6 -30 l32 -3 0 -114 c0 -63 4 -125 9 -138 11 -28 69 -52 101 -42 30 10 24
25 -10 25 -17 0 -39 9 -50 20 -18 18 -20 33 -20 134 l0 115 47 3 c64 4 69 26
6 30 l-48 3 -3 43 c-3 40 -18 56 -27 30z"/>
<path d="M9178 3278 c-3 -40 -5 -43 -35 -46 -47 -5 -44 -32 2 -32 l35 0 0
-125 c0 -112 2 -127 20 -145 21 -21 100 -29 100 -10 0 6 -12 10 -26 10 -14 0
-34 5 -45 10 -17 10 -19 22 -19 135 l0 125 45 0 c33 0 45 4 45 15 0 11 -12 15
-45 15 l-45 0 0 45 c0 33 -4 45 -14 45 -10 0 -16 -14 -18 -42z"/>
<path d="M14864 3306 c-3 -9 -4 -23 0 -31 10 -28 -5 -45 -41 -45 -44 0 -40
-23 6 -30 l32 -5 2 -121 c2 -102 5 -125 20 -142 21 -24 61 -35 88 -27 28 9 23
25 -7 25 -14 0 -34 5 -45 10 -17 10 -19 22 -19 135 l0 124 42 3 c59 4 63 28 4
28 -29 0 -46 5 -47 13 -1 6 -2 25 -3 41 -1 32 -23 47 -32 22z"/>
<path d="M16495 3308 c-2 -7 -5 -26 -7 -43 -3 -26 -8 -30 -35 -33 -47 -5 -44
-32 2 -32 l35 0 0 -121 c0 -66 5 -129 10 -139 11 -20 83 -45 100 -35 19 12 10
25 -18 25 -53 0 -62 23 -62 153 l0 116 48 3 c26 2 47 8 47 13 0 6 -21 11 -47
13 l-48 3 0 45 c0 41 -15 60 -25 32z"/>
<path d="M6530 3229 c-64 -27 -100 -85 -100 -162 0 -144 169 -219 278 -123 46
40 21 49 -34 11 -65 -44 -158 -24 -198 44 -33 57 -23 61 134 61 l140 0 0 34
c0 37 -31 89 -72 119 -31 23 -111 32 -148 16z m151 -56 c17 -17 31 -41 32 -59
l2 -29 -127 -3 c-141 -3 -144 -2 -113 59 39 74 147 91 206 32z"/>
<path d="M7130 3229 c-13 -6 -33 -17 -42 -26 -10 -9 -19 -13 -19 -10 -1 4 -2
12 -3 19 0 6 -6 13 -12 15 -14 5 -29 -196 -21 -262 3 -22 6 -43 6 -47 1 -5 5
-8 10 -8 5 0 11 48 13 108 3 59 10 119 18 134 7 16 32 36 57 48 24 11 41 25
38 30 -7 12 -12 12 -45 -1z"/>
<path d="M7325 3228 c-67 -24 -105 -83 -105 -163 0 -141 160 -213 274 -124 26
21 34 39 16 39 -5 0 -26 -11 -46 -25 -67 -46 -164 -23 -200 47 -28 54 -19 58
137 58 l142 0 -6 42 c-13 99 -118 161 -212 126z m119 -33 c35 -17 66 -61 66
-94 0 -20 -5 -21 -130 -21 l-130 0 0 24 c0 28 43 84 74 96 33 14 85 11 120 -5z"/>
<path d="M7714 3221 c-63 -29 -89 -72 -89 -151 0 -77 24 -119 85 -150 64 -33
140 -21 184 29 11 11 23 21 28 21 4 0 8 -43 8 -95 0 -78 3 -95 15 -95 13 0 15
32 15 225 0 193 -2 225 -15 225 -10 0 -15 -10 -15 -30 0 -35 -10 -38 -36 -9
-24 27 -74 49 -111 49 -15 0 -46 -9 -69 -19z m167 -47 c118 -113 -10 -297
-158 -227 -97 46 -97 205 0 249 48 22 123 11 158 -22z"/>
<path d="M8523 3220 c-47 -24 -67 -49 -82 -108 -32 -119 72 -231 193 -208 37
7 97 44 104 64 6 19 -14 14 -54 -13 -48 -33 -108 -33 -155 -2 -40 27 -65 67
-56 90 6 15 25 17 147 17 l140 0 0 28 c0 35 -37 99 -72 125 -40 30 -114 33
-165 7z m158 -36 c28 -25 52 -73 45 -90 -4 -11 -32 -14 -131 -14 l-125 0 0 24
c0 28 43 83 74 97 33 14 114 4 137 -17z"/>
<path d="M8894 3230 c-30 -12 -64 -58 -64 -86 0 -35 29 -59 104 -84 100 -33
122 -68 70 -109 -38 -30 -94 -28 -134 5 -32 28 -52 25 -34 -4 19 -31 76 -53
124 -49 60 7 105 54 96 101 -8 40 -36 61 -108 81 -63 17 -88 36 -88 66 0 55
92 79 144 38 29 -23 42 -20 32 6 -12 33 -96 54 -142 35z"/>
<path d="M9450 3218 c-79 -40 -111 -135 -75 -221 38 -91 164 -124 251 -65 33
23 45 48 22 48 -6 0 -22 -10 -34 -21 -66 -62 -207 -14 -217 73 -2 23 -1 23
143 28 l145 5 -3 34 c-5 49 -41 98 -88 121 -52 26 -89 25 -144 -2z m146 -27
c33 -20 60 -71 50 -96 -4 -12 -27 -15 -126 -15 -134 0 -144 5 -115 60 34 65
127 90 191 51z"/>
<path d="M10515 3226 c-17 -7 -36 -20 -44 -29 -18 -23 -29 -21 -33 5 -2 12 -9
23 -15 26 -10 3 -13 -33 -14 -155 -1 -185 1 -286 8 -293 12 -13 23 33 23 103
0 42 3 77 6 77 3 0 19 -11 35 -25 85 -71 229 -18 259 95 35 128 -104 249 -225
196z m124 -34 c52 -26 75 -63 75 -120 0 -109 -102 -172 -201 -125 -46 21 -73
67 -73 121 0 111 102 174 199 124z"/>
<path d="M10909 3217 c-83 -44 -111 -139 -66 -227 45 -91 154 -114 243 -51
l44 31 0 -30 c0 -20 5 -30 15 -30 13 0 15 24 15 160 0 136 -2 160 -15 160 -9
0 -15 -9 -15 -25 0 -26 -14 -33 -26 -14 -11 18 -86 49 -120 49 -17 0 -51 -10
-75 -23z m171 -42 c74 -71 58 -184 -30 -230 -40 -21 -86 -19 -130 6 -103 58
-92 198 20 251 8 4 37 6 63 4 36 -2 55 -10 77 -31z"/>
<path d="M11360 3224 c-69 -30 -100 -81 -100 -164 0 -131 157 -204 260 -122
l38 31 5 -32 c18 -120 -144 -185 -239 -96 -28 27 -43 6 -17 -23 38 -44 127
-61 190 -37 42 15 82 58 89 94 3 17 6 103 7 191 2 135 0 159 -13 159 -8 0 -16
-10 -18 -22 -4 -27 -14 -29 -33 -6 -18 22 -72 43 -106 43 -15 -1 -44 -8 -63
-16z m130 -29 c50 -26 70 -61 70 -125 0 -66 -23 -104 -76 -126 -44 -18 -78
-18 -121 3 -97 46 -97 206 0 248 42 19 91 19 127 0z"/>
<path d="M11780 3217 c-51 -27 -90 -90 -90 -147 0 -58 38 -121 90 -147 24 -13
60 -23 80 -23 40 0 108 29 129 54 19 23 5 33 -22 16 -47 -29 -73 -40 -100 -40
-62 0 -134 52 -139 100 l-3 25 145 5 145 5 -3 35 c-6 75 -78 140 -154 140 -19
0 -54 -10 -78 -23z m146 -26 c32 -19 70 -84 59 -101 -8 -13 -252 -13 -260 0
-3 5 2 24 11 42 37 73 124 100 190 59z"/>
<path d="M12814 3221 c-77 -35 -117 -117 -95 -193 15 -51 43 -83 93 -109 72
-37 160 -14 209 54 24 33 29 50 29 97 0 71 -27 116 -90 148 -54 27 -92 28
-146 3z m131 -25 c66 -28 96 -126 60 -196 -17 -33 -81 -70 -121 -70 -40 0 -94
30 -115 64 -24 39 -25 122 -3 155 40 56 112 75 179 47z"/>
<path d="M13224 3222 c-64 -30 -89 -74 -89 -154 0 -80 18 -111 86 -146 35 -18
54 -22 92 -18 53 6 117 40 117 62 0 20 -14 17 -56 -11 -79 -54 -197 -9 -207
77 -2 23 -1 23 143 28 l145 5 -3 35 c-10 106 -127 169 -228 122z m131 -26 c22
-10 41 -27 51 -50 30 -61 20 -66 -116 -66 -134 0 -144 5 -115 60 32 62 108 86
180 56z"/>
<path d="M13570 3218 c-28 -19 -36 -31 -38 -62 -4 -51 16 -72 96 -96 80 -25
92 -34 92 -71 0 -32 -39 -59 -85 -59 -30 0 -85 26 -85 40 0 6 -7 10 -16 10
-23 0 -13 -30 17 -53 56 -41 161 -29 189 22 33 62 -2 109 -99 137 -70 20 -81
29 -81 65 0 55 82 79 133 39 46 -37 65 -20 23 19 -37 35 -102 39 -146 9z"/>
<path d="M14134 3227 c-12 -6 -31 -18 -43 -25 -19 -11 -21 -10 -21 8 0 11 -7
20 -15 20 -13 0 -15 -24 -15 -160 0 -131 3 -160 14 -160 11 0 15 25 18 120 3
114 4 121 29 146 18 18 41 28 72 31 41 5 49 2 77 -25 l30 -30 0 -121 c0 -101
2 -121 15 -121 22 0 22 228 -1 271 -25 50 -112 75 -160 46z"/>
<path d="M14492 3219 c-86 -43 -116 -141 -70 -228 60 -111 200 -120 282 -18
27 33 31 47 31 97 0 50 -4 64 -31 97 -58 73 -133 91 -212 52z m164 -40 c56
-52 69 -119 34 -177 -57 -94 -181 -94 -241 0 -40 65 -7 167 66 199 36 16 113
4 141 -22z"/>
<path d="M15364 3229 c-40 -11 -90 -67 -103 -114 -29 -105 52 -215 157 -215
53 0 142 45 142 72 0 14 -18 9 -57 -18 -65 -44 -163 -21 -202 48 -8 14 -11 32
-8 41 6 15 25 17 148 17 l142 0 -6 40 c-13 102 -109 159 -213 129z m137 -45
c28 -25 52 -73 45 -90 -4 -11 -32 -14 -131 -14 l-125 0 0 24 c0 28 43 83 74
97 33 14 114 4 137 -17z"/>
<path d="M16204 3230 c-27 -11 -64 -57 -64 -80 0 -34 40 -69 101 -88 99 -31
125 -70 73 -111 -36 -28 -83 -26 -128 4 -43 29 -46 30 -46 11 0 -20 44 -53 81
-61 105 -23 192 73 125 140 -13 13 -51 31 -85 41 -78 21 -102 50 -77 89 27 41
97 45 138 8 22 -20 44 -8 26 14 -29 35 -99 51 -144 33z"/>
<path d="M8067 3223 c-11 -19 -7 -201 6 -238 28 -80 119 -109 191 -60 45 30
46 30 46 4 0 -12 5 -19 13 -17 9 4 13 47 15 161 2 135 0 157 -13 157 -12 0
-15 -17 -15 -100 0 -64 -5 -113 -14 -135 -26 -60 -115 -85 -166 -45 -24 18
-25 25 -30 146 -3 84 -9 129 -17 131 -6 2 -13 0 -16 -4z"/>
<path d="M15650 3221 c0 -5 22 -37 50 -72 27 -35 50 -68 50 -73 0 -5 -25 -41
-55 -81 -58 -75 -63 -85 -42 -85 7 0 36 32 66 70 29 39 54 70 55 70 1 0 26
-31 56 -70 48 -61 80 -87 80 -62 0 4 -25 38 -55 76 -30 38 -55 74 -55 80 0 7
23 42 52 79 28 37 48 70 44 74 -8 8 -48 -30 -82 -78 -15 -22 -32 -39 -38 -39
-7 0 -32 27 -57 60 -40 53 -69 75 -69 51z"/>
<path d="M16010 3070 c0 -125 3 -161 13 -157 9 3 12 43 12 157 0 114 -3 154
-12 158 -10 3 -13 -33 -13 -158z"/>
</g>
</svg>
